<svg width="1200" height="600" xmlns="http://www.w3.org/2000/svg">
  <rect width="100%" height="100%" fill="black" />
  <!-- Europe -->
  <g fill="white" opacity="0.5">
    <circle cx="550" cy="200" r="2" />
    <circle cx="560" cy="195" r="2" />
    <circle cx="570" cy="190" r="2" />
    <circle cx="580" cy="185" r="2" />
    <circle cx="590" cy="180" r="2" />
    <circle cx="600" cy="175" r="2" />
    <circle cx="610" cy="180" r="2" />
    <circle cx="620" cy="190" r="2" />
    <circle cx="540" cy="210" r="2" />
    <circle cx="530" cy="220" r="2" />
    <circle cx="520" cy="210" r="2" />
    <circle cx="510" cy="200" r="2" />
    <circle cx="500" cy="190" r="2" />
  </g>
  
  <!-- North America -->
  <g fill="white" opacity="0.5">
    <circle cx="300" cy="180" r="2" />
    <circle cx="290" cy="190" r="2" />
    <circle cx="280" cy="200" r="2" />
    <circle cx="270" cy="210" r="2" />
    <circle cx="260" cy="220" r="2" />
    <circle cx="250" cy="230" r="2" />
    <circle cx="240" cy="240" r="2" />
    <circle cx="230" cy="250" r="2" />
    <circle cx="220" cy="260" r="2" />
    <circle cx="210" cy="270" r="2" />
    <circle cx="200" cy="280" r="2" />
    <circle cx="190" cy="290" r="2" />
    <circle cx="310" cy="190" r="2" />
    <circle cx="320" cy="200" r="2" />
    <circle cx="330" cy="210" r="2" />
  </g>
  
  <!-- South America -->
  <g fill="white" opacity="0.5">
    <circle cx="330" cy="350" r="2" />
    <circle cx="320" cy="370" r="2" />
    <circle cx="310" cy="390" r="2" />
    <circle cx="300" cy="410" r="2" />
    <circle cx="290" cy="430" r="2" />
    <circle cx="340" cy="370" r="2" />
    <circle cx="350" cy="390" r="2" />
    <circle cx="360" cy="410" r="2" />
    <circle cx="370" cy="430" r="2" />
  </g>
  
  <!-- Africa -->
  <g fill="white" opacity="0.5">
    <circle cx="550" cy="300" r="2" />
    <circle cx="540" cy="320" r="2" />
    <circle cx="530" cy="340" r="2" />
    <circle cx="520" cy="360" r="2" />
    <circle cx="510" cy="380" r="2" />
    <circle cx="560" cy="310" r="2" />
    <circle cx="570" cy="320" r="2" />
    <circle cx="580" cy="330" r="2" />
    <circle cx="590" cy="340" r="2" />
    <circle cx="600" cy="350" r="2" />
  </g>
  
  <!-- Asia -->
  <g fill="white" opacity="0.5">
    <circle cx="650" cy="200" r="2" />
    <circle cx="670" cy="190" r="2" />
    <circle cx="690" cy="180" r="2" />
    <circle cx="710" cy="170" r="2" />
    <circle cx="730" cy="180" r="2" />
    <circle cx="750" cy="190" r="2" />
    <circle cx="770" cy="200" r="2" />
    <circle cx="790" cy="210" r="2" />
    <circle cx="810" cy="220" r="2" />
    <circle cx="650" cy="220" r="2" />
    <circle cx="670" cy="230" r="2" />
    <circle cx="690" cy="240" r="2" />
    <circle cx="710" cy="250" r="2" />
    <circle cx="730" cy="260" r="2" />
    <circle cx="750" cy="270" r="2" />
  </g>
  
  <!-- Australia -->
  <g fill="white" opacity="0.5">
    <circle cx="850" cy="400" r="2" />
    <circle cx="860" cy="410" r="2" />
    <circle cx="870" cy="420" r="2" />
    <circle cx="880" cy="410" r="2" />
    <circle cx="890" cy="400" r="2" />
    <circle cx="900" cy="410" r="2" />
    <circle cx="870" cy="400" r="2" />
    <circle cx="860" cy="390" r="2" />
  </g>
  
  <!-- Connection lines to represent travel routes -->
  <g stroke="white" stroke-width="0.5" opacity="0.15">
    <line x1="300" y1="200" x2="550" y2="200" />
    <line x1="550" y1="200" x2="750" y2="250" />
    <line x1="550" y1="200" x2="550" y2="300" />
    <line x1="300" y1="200" x2="330" y2="350" />
    <line x1="750" y1="250" x2="850" y2="400" />
    <line x1="550" y1="300" x2="850" y2="400" />
  </g>
  
  <!-- Random dots for stars/background -->
  <g fill="white" opacity="0.3">
    <circle cx="100" cy="100" r="1" />
    <circle cx="200" cy="150" r="1" />
    <circle cx="300" cy="100" r="1" />
    <circle cx="400" cy="150" r="1" />
    <circle cx="500" cy="100" r="1" />
    <circle cx="600" cy="150" r="1" />
    <circle cx="700" cy="100" r="1" />
    <circle cx="800" cy="150" r="1" />
    <circle cx="900" cy="100" r="1" />
    <circle cx="1000" cy="150" r="1" />
    <circle cx="150" cy="200" r="1" />
    <circle cx="250" cy="250" r="1" />
    <circle cx="350" cy="300" r="1" />
    <circle cx="450" cy="350" r="1" />
    <circle cx="550" cy="400" r="1" />
    <circle cx="650" cy="450" r="1" />
    <circle cx="750" cy="500" r="1" />
    <circle cx="850" cy="550" r="1" />
    <circle cx="950" cy="500" r="1" />
    <circle cx="1050" cy="450" r="1" />
  </g>
</svg> 